<?xml version="1.0" encoding="UTF-8"?>
<svg id="Layer_1" data-name="Layer 1" xmlns="http://www.w3.org/2000/svg" xmlns:xlink="http://www.w3.org/1999/xlink" viewBox="0 0 2014.4 559.97">
  <defs>
    <style>
      .cls-1 {
        clip-path: url(#clippath-4);
      }

      .cls-1, .cls-2, .cls-3, .cls-4, .cls-5, .cls-6, .cls-7, .cls-8, .cls-9, .cls-10, .cls-11, .cls-12 {
        fill: none;
      }

      .cls-2 {
        clip-path: url(#clippath-2);
      }

      .cls-13 {
        fill: #fff;
      }

      .cls-3 {
        clip-path: url(#clippath-6);
      }

      .cls-4 {
        clip-path: url(#clippath-9);
      }

      .cls-14 {
        fill: #15bfe7;
      }

      .cls-5 {
        clip-path: url(#clippath-7);
      }

      .cls-6 {
        clip-path: url(#clippath-10);
      }

      .cls-7 {
        clip-path: url(#clippath-5);
      }

      .cls-15 {
        fill: #212121;
      }

      .cls-8 {
        clip-path: url(#clippath-3);
      }

      .cls-9 {
        clip-rule: evenodd;
      }

      .cls-10 {
        clip-path: url(#clippath);
      }

      .cls-11 {
        clip-path: url(#clippath-1);
      }

      .cls-12 {
        clip-path: url(#clippath-8);
      }
    </style>
    <clipPath id="clippath">
      <path class="cls-9" d="m1514.44,262.1c-5.48-33.13-36.93-66.03-79.8-66.31-46.98-.3-76.46,35.07-82.03,66.31h161.83Zm-162.31,30.11c1.2,7.81,3.6,14.66,6.87,21.2,12.42,24.78,32.19,40.51,59.39,45.69,24.96,4.76,47.68-1.58,67.83-17.04,1.4-1.07,2.72-2.27,4.19-3.23,6.08-3.98,14.14-2.9,18.9,2.45,4.67,5.26,4.85,13.13.42,18.75-1.49,1.89-3.27,3.49-5.14,4.99-21.76,17.51-46.61,26.12-74.53,25.37-52.76-1.43-97.55-39.86-107.2-91.73-8.43-45.32,11.52-90.58,50.37-115.3,55.86-35.54,133.53-15.21,162.38,48.73,6.08,13.47,9.6,27.44,9.99,42.28.24,8.96-5.13,17.24-16.84,17.8-1.38.07-2.77.03-4.16.03-55.83,0-111.66,0-167.49,0h-4.98Zm0,0"/>
    </clipPath>
    <clipPath id="clippath-1">
      <path class="cls-9" d="m1092.26,240.71c-14.33-30.93-54.17-52.8-93.71-42.36-43.44,11.48-65.01,51.88-61.73,86.86,51.78-14.83,103.48-29.63,155.45-44.51m-147.55,73.38c2.43,5.52,5.61,10.33,9.29,14.77,18.66,22.48,42.68,33.16,71.84,31.36,17.09-1.05,32.11-7.96,45.49-18.5,6.69-5.27,12.44-11.38,17.06-18.54,3.18-4.91,7.57-7.6,13.56-7.43,9.22.26,15.87,9.42,13.31,18.31-.78,2.7-2.17,5.09-3.76,7.36-17.62,25.25-41.51,41.03-71.75,46.94-59.1,11.57-118.25-26.67-131.07-87.76-12.05-57.42,23.76-115.43,80.74-130.6,44.6-11.87,90.35,3.73,118.59,40.4,7.52,9.76,13.12,20.46,17.15,32.13,3.37,9.75.03,19.81-12.37,23.31-15.86,4.48-31.69,9.07-47.54,13.6-39.07,11.17-78.15,22.34-117.22,33.52-1.05.3-2.08.7-3.34,1.13"/>
    </clipPath>
    <clipPath id="clippath-2">
      <path class="cls-9" d="m713.2,292.59c-1.42-.62-2.69-.37-3.93-.37-35.15-.02-70.3-.02-105.45,0-2.52,0-5.05.01-7.55.2-4.94.37-9.71,1.46-14.09,3.87-5.14,2.83-8.33,7.08-9.57,12.88-.92,4.31-.52,8.52.58,12.68,3.37,12.69,11.16,22.12,22.06,29.04,15.05,9.56,31.62,11.92,48.99,9.33,35.15-5.25,62.78-32.37,68.97-67.63m-23.91-73.28c-12.76-12.33-27.97-20.24-45.61-22.61-23.86-3.2-45.44,2.87-64.6,17.44-1.5,1.14-2.91,2.43-4.48,3.47-6.06,3.99-14.19,2.95-18.93-2.33-4.74-5.27-4.87-13.43-.28-19.07,1.68-2.06,3.7-3.77,5.78-5.42,23.51-18.56,50.3-27.01,80.06-24.34,36.67,3.28,65.29,20.75,85.5,51.52,13.82,21.03,19.6,44.36,17.54,69.35-1.86,22.57-9.35,42.17-22.15,58.8-3.55,4.61-7.51,8.99-11.86,13.15-3.42,3.27-7.1,6.39-11.02,9.38-13.74,10.47-29.16,17.41-46.31,20.09-24.27,3.79-47.82,1.93-69.69-10.24-19.05-10.6-32.53-26.01-38.82-47.16-3.5-11.77-3.69-23.63.65-35.24,6.11-16.35,18.34-26.05,34.78-30.84,7.8-2.27,15.83-2.93,23.93-2.93,35.05,0,70.09,0,105.14-.01,1.37,0,2.77.25,4.55-.42-4.14-16.61-12.05-30.86-24.19-42.59h0Zm0,0"/>
    </clipPath>
    <clipPath id="clippath-3">
      <path class="cls-9" d="m1590.44,182.43c9.07-6.85,18.94-11.68,29.88-14.32,42.02-10.13,83.81,17.02,91.64,59.57,1.48,8.07,2.16,16.22,2.18,24.41.06,39.41.08,78.82.07,118.23,0,8.37-4.56,14-12.17,15.37-7.68,1.38-15.1-3.62-16.68-11.28-.44-2.1-.5-4.24-.5-6.39.01-33.37.04-66.73,0-100.1-.02-10.07.05-20.14-.96-30.19-2.1-20.85-16.73-37.32-36.88-41.11-24.11-4.53-48.74,9.26-54.68,35.36-1.72,7.55-2.1,15.21-2.13,22.88-.1,37.9-.08,75.8-.1,113.7,0,2.52-.01,5.02-.84,7.46-2.08,6.13-7.72,10.1-14.15,9.9-6.68-.2-12.18-4.53-13.79-10.89-.46-1.83-.67-3.7-.67-5.61.02-60.94.02-121.88,0-182.83,0-1.65.18-3.26.54-4.86,1.48-6.61,6.42-10.91,13.25-11.5,6.33-.55,12.16,3.15,14.59,9.23.37.92.29,2.02,1.41,2.96"/>
    </clipPath>
    <clipPath id="clippath-4">
      <path class="cls-9" d="m1947.2,169.1c26.61-.29,49.69,18.8,56.15,43.84.91,3.54,1.54,7.17.96,10.84-.99,6.24-5.59,10.83-11.66,11.81-6.27,1.01-12.25-1.98-15.18-7.58-1.13-2.15-1.52-4.5-1.97-6.85-2.52-13.09-13.5-22.37-27.22-23.07-12.77-.66-24.96,7.95-28.7,20.26-5.03,16.58,5.55,33.68,22.89,36.93,6.31,1.18,12.74,1.77,18.94,3.46,23.42,6.39,38.21,21.91,45.13,44.64,11.13,36.55-11.26,74.95-48.5,83.76-26.59,6.29-55.43-3.49-72.18-30.52-5.18-8.36-8.67-17.29-9.52-27.16-.19-2.26-.37-4.5.08-6.77,1.45-7.32,7.18-12.16,14.33-12,7.27.16,13.05,5.46,13.97,12.9.34,2.75.53,5.51,1.25,8.2,4.41,16.31,18.88,27.08,35.74,28.1,25.42,1.54,48.3-27.31,34.37-55.08-5.56-11.09-14.37-17.49-26.65-19.31-5.97-.89-11.98-1.62-17.83-3.23-25.12-6.9-42.5-30.5-42.26-56.13.31-31.64,26.01-57.17,57.85-57.03"/>
    </clipPath>
    <clipPath id="clippath-5">
      <path class="cls-9" d="m1226.57,333.45c1.86-4.77,3.74-9.54,5.59-14.32,17.51-45.4,35.01-90.79,52.52-136.19.5-1.29.99-2.59,1.6-3.83,3.15-6.42,8.86-9.41,15.81-8.34,6.49,1,10.82,5.85,12.03,12.77.42,2.38.05,4.32-.78,6.45-24.23,61.94-48.42,123.89-72.61,185.84-.78,2-1.54,3.99-2.77,5.77-6.31,9.16-19.7,8.62-25.19-1.06-.99-1.74-1.68-3.65-2.41-5.53-24.2-61.81-48.39-123.63-72.58-185.45-3.19-8.14,2.95-17.86,11.91-18.86,7.51-.84,13.53,2.87,16.52,10.41,3.95,9.93,7.76,19.92,11.65,29.87,15.57,39.81,31.14,79.62,46.71,119.43.4,1.03.83,2.04,1.25,3.06.25,0,.51-.01.76-.02"/>
    </clipPath>
    <clipPath id="clippath-6">
      <path class="cls-9" d="m1784.55,291.96c0,27.06,0,54.13-.01,81.19,0,1.88.04,3.81-.33,5.64-1.42,6.97-7.29,11.7-14.29,11.68-7.22-.02-12.94-4.84-14.38-12.03-.43-2.12-.41-4.25-.41-6.39,0-54.25,0-108.51,0-162.76q0-4.62-4.54-4.63c-3.53,0-7.06.13-10.58-.05-10.11-.53-16.48-9.29-13.74-19.02,1.65-5.87,5.67-9.41,11.7-10.42,4.62-.78,9.31-.27,13.96-.35,3.46-.06,3.2.21,3.21-3.34,0-4.78.01-9.57,0-14.35,0-2.16.26-4.27.96-6.31,2.31-6.73,8.68-10.49,16.14-9.56,6.62.82,11.92,6.41,12.23,13.33.25,5.53.09,11.07.1,16.61.01,3.64-.44,3.61,3.76,3.61,19.53,0,39.06,0,58.6,0,1.51,0,3.03.01,4.53.19,8.29.96,13.54,7.09,13.31,15.47-.21,7.88-6.12,13.74-14.32,14.16-1.13.06-2.27.03-3.4.03-19.28,0-38.56,0-57.84,0-.88,0-1.77.05-2.65,0-1.44-.1-2.1.48-1.98,1.96.07.88,0,1.76,0,2.64,0,27.57,0,55.13,0,82.7"/>
    </clipPath>
    <clipPath id="clippath-7">
      <path class="cls-9" d="m799.45,246.35c0,41.04,0,82.08,0,123.12,0,2.52.01,5.02-.85,7.45-2.18,6.11-7.82,10.01-14.25,9.76-6.7-.26-12.15-4.58-13.76-10.94-.46-1.83-.66-3.7-.66-5.61.01-82.58.01-165.17,0-247.75,0-1.77.14-3.51.53-5.24,1.71-7.6,7.84-12.04,15.86-11.46,6.98.51,12.45,6.1,13.03,13.4.13,1.63.09,3.27.09,4.91,0,40.79,0,81.58,0,122.36"/>
    </clipPath>
    <clipPath id="clippath-8">
      <path class="cls-9" d="m874.3,246.3c0,41.04,0,82.08,0,123.12,0,2.38.05,4.76-.73,7.09-2.13,6.37-7.73,10.4-14.32,10.17-6.85-.24-12.31-4.67-13.88-11.26-.44-1.85-.58-3.72-.58-5.62.01-82.46.01-164.92,0-247.37,0-1.77.13-3.51.52-5.24,1.7-7.62,7.79-12.07,15.82-11.51,7.13.5,12.62,6.23,13.1,13.73.1,1.51.07,3.02.07,4.53,0,40.79,0,81.58,0,122.37"/>
    </clipPath>
    <clipPath id="clippath-9">
      <path class="cls-9" d="m259.93,5c1.53,1.12,3.39.75,5.08,1.05,10.51,1.89,20.28,5.79,29.49,11.06,55.82,31.93,111.6,63.91,167.38,95.92,7.88,4.52,15.09,9.93,21.45,16.48,9.67,9.96,15.37,21.89,17.9,35.42,1.13,6.05,1.72,12.17,1.67,18.34-.03,3.89.03,7.78.04,11.68.17,59,.34,118.01.51,177.01.03,9.57-.7,19.05-3.08,28.35-4.41,17.21-14.59,30.33-28.95,40.45-9.16,6.45-19.08,11.65-28.74,17.25-48.36,28.03-96.74,56-145.13,83.97-10.28,5.94-21.04,10.68-32.92,12.43-.32.05-.61.38-.91.58h-17.35c-1.38-1.11-3.12-.79-4.68-1.11-11.1-2.29-21.16-7.06-30.9-12.64-51.22-29.36-102.45-58.7-153.67-88.06-8.06-4.62-16.2-9.12-23.49-14.98-12.65-10.17-21.39-22.81-25.05-38.77-2-8.73-2.78-17.58-2.85-26.5-.13-17.83-.14-35.66-.23-53.49,0-1.35.38-2.77-.5-4.02v-133.35c.77-5.45,1.37-10.93,2.35-16.34,2.28-12.59,7.41-23.85,15.99-33.5,7.01-7.89,15.42-13.97,24.47-19.22,54.63-31.63,109.29-63.22,163.95-94.81,9.95-5.75,20.42-10.18,31.82-12.18,1.43-.25,3.05.14,4.29-1h12.07Zm0,0"/>
    </clipPath>
    <clipPath id="clippath-10">
      <path class="cls-9" d="m242.56,227.59c-.77-1.3-1.21-2.05-1.65-2.81-7.3-12.48-16.34-23.5-27.75-32.45-26.98-21.17-57.51-28.91-91.31-23.52-19,3.03-35.91,11.04-51.07,22.78-2.58,2-5.15,4.03-7.1,6.71-2.95,4.06-3.11,8.46-1.17,12.84,1.99,4.5,5.71,6.76,10.67,7.18,4.72.4,8.04-2.12,11.47-4.78,22.39-17.4,47.63-24.21,75.41-18.08,30.36,6.7,51.14,25.55,63.62,53.77,1.98,4.49,3.49,9.14,4.49,13.95.76,3.65.58,3.79-3.17,3.83-.75,0-1.51,0-2.26,0-19.36,0-38.72,0-58.07,0-19.11,0-38.21.02-57.32.06-7.73.02-15.27,1.28-22.54,3.87-17.24,6.15-28.68,17.79-32.72,35.85-3.07,13.74-.69,27,5.44,39.53,10.36,21.19,27.33,34.95,49.33,42.81,13.58,4.85,27.66,6.04,41.96,5.37,11.11-.52,21.99-2.33,32.41-6.25,25.65-9.64,45.37-26.4,59.43-49.86.69-1.16,1.07-2.56,2.35-3.37,1.28,1.12,1.86,2.68,2.69,4.06,6.39,10.64,14.14,20.17,23.66,28.14,25.26,21.14,54.3,30.14,87.15,26.69,22.83-2.39,42.75-11.47,60.39-25.89,1.86-1.52,3.54-3.22,4.82-5.26,4.42-7.05.63-16.53-7.36-18.77-5.35-1.5-9.6.45-13.48,3.82-6.51,5.67-13.85,9.95-21.79,13.25-16.4,6.84-33.39,9.17-50.93,6.12-34.56-6.01-63.77-34.71-70.58-69.09q-1.02-5.17,4.4-5.17c58.45,0,116.9,0,175.35,0,1.63,0,3.27.02,4.9-.02,9.34-.21,15.23-6.22,15.18-15.54-.03-4.52-.48-9.01-1.2-13.48-3.87-24.02-14.02-45.11-31.14-62.3-27.77-27.87-61.62-38.97-100.49-32.82-30.44,4.82-54.65,20.54-73.12,45.15-3.15,4.2-5.77,8.75-8.88,13.67h0ZM259.93,5c1.53,1.12,3.39.75,5.08,1.05,10.51,1.89,20.28,5.79,29.49,11.06,55.82,31.93,111.6,63.91,167.38,95.92,7.88,4.52,15.09,9.93,21.45,16.48,9.67,9.96,15.37,21.89,17.9,35.42,1.13,6.05,1.72,12.17,1.67,18.34-.03,3.89.03,7.78.04,11.68.17,59,.34,118.01.51,177.01.03,9.57-.7,19.05-3.08,28.35-4.41,17.21-14.59,30.33-28.95,40.45-9.16,6.45-19.08,11.65-28.74,17.25-48.36,28.03-96.74,56-145.13,83.97-10.28,5.94-21.04,10.68-32.92,12.43-.32.05-.61.38-.91.58h-17.35c-1.38-1.11-3.12-.79-4.68-1.11-11.1-2.29-21.16-7.06-30.9-12.64-51.22-29.36-102.45-58.7-153.67-88.06-8.06-4.62-16.2-9.12-23.49-14.98-12.65-10.17-21.39-22.81-25.05-38.77-2-8.73-2.78-17.58-2.85-26.5-.13-17.83-.14-35.66-.23-53.49,0-1.35.38-2.77-.5-4.02v-133.35c.77-5.45,1.37-10.93,2.35-16.34,2.28-12.59,7.41-23.85,15.99-33.5,7.01-7.89,15.42-13.97,24.47-19.22,54.63-31.63,109.29-63.22,163.95-94.81,9.95-5.75,20.42-10.18,31.82-12.18,1.43-.25,3.05.14,4.29-1h12.07Zm83.71,261.95c-27.51,0-55.02,0-82.53,0-4.34,0-4.38-.02-3.43-4.29,7.41-33.27,34.3-61.58,70.6-67.98,42.01-7.4,83.01,15.86,97.95,55.75,1.67,4.47,2.91,9.07,3.8,13.75.5,2.62.44,2.68-2.36,2.76-.75.02-1.51,0-2.26,0h-81.77Zm-176.66,25.96c18.84,0,37.69,0,56.53,0,.88,0,1.76.06,2.64,0,1.85-.15,2.45.64,2.18,2.45-.67,4.48-1.71,8.89-3.23,13.13-11.5,31.94-33.69,51.95-67.07,58.95-15.97,3.35-31.74,2.14-46.83-4.58-11.29-5.03-20.58-12.47-27.09-23.09-4.2-6.85-6.87-14.24-6.7-22.4.2-9.7,4.67-16.72,13.56-20.78,6.18-2.82,12.79-3.6,19.47-3.63,18.84-.09,37.69-.03,56.53-.03h0Zm0,0"/>
    </clipPath>
  </defs>
  <g>
    <g class="cls-10">
      <rect class="cls-15" x="1315.95" y="161" width="234.66" height="234.45"/>
    </g>
    <g class="cls-11">
      <rect class="cls-15" x="901.36" y="161.09" width="230.05" height="234.33"/>
    </g>
    <g class="cls-2">
      <rect class="cls-15" x="536.82" y="160.97" width="212.87" height="234.53"/>
    </g>
    <g class="cls-8">
      <rect class="cls-15" x="1555.65" y="160.99" width="163.56" height="229.95"/>
    </g>
    <g class="cls-1">
      <rect class="cls-15" x="1871.13" y="164.1" width="143.26" height="229.87"/>
    </g>
    <g class="cls-7">
      <rect class="cls-15" x="1131.92" y="165.56" width="187.37" height="227.6"/>
    </g>
    <g class="cls-3">
      <rect class="cls-15" x="1720.61" y="136.12" width="149.13" height="259.35"/>
    </g>
    <g class="cls-5">
      <rect class="cls-15" x="764.93" y="100.63" width="39.52" height="291.07"/>
    </g>
    <g class="cls-12">
      <rect class="cls-15" x="839.79" y="100.63" width="39.52" height="291.06"/>
    </g>
  </g>
  <g class="cls-4">
    <rect class="cls-13" width="508.44" height="559.97"/>
  </g>
  <g class="cls-6">
    <rect class="cls-14" width="508.44" height="559.97"/>
  </g>
</svg>